<?xml version="1.0" encoding="utf-8"?>
<!-- Generator: Adobe Illustrator 18.1.1, SVG Export Plug-In . SVG Version: 6.00 Build 0)  -->
<!DOCTYPE svg PUBLIC "-//W3C//DTD SVG 1.1//EN" "http://www.w3.org/Graphics/SVG/1.1/DTD/svg11.dtd">
<svg version="1.1" id="Layer_1" xmlns="http://www.w3.org/2000/svg" xmlns:xlink="http://www.w3.org/1999/xlink" x="0px" y="0px"
	 viewBox="0 0 91.7 32.4" enable-background="new 0 0 91.7 32.4" xml:space="preserve">
<g>
	<path fill="#202020" d="M88.8,31.9H3.1c-1.4,0-2.6-1.2-2.6-2.6V16c0-1.4,1.2-2.6,2.6-2.6h85.7c1.4,0,2.6,1.2,2.6,2.6v13.3
		C91.4,30.7,90.2,31.9,88.8,31.9z"/>
	<g>
		<path fill="#FFFFFF" d="M13.4,25.1c0,0.9,0.1,1.2,1,1.2v0.3h-5v-0.3c0.9-0.1,1-0.3,1-1.2v-5.6c-1.4,0-2.6,0.6-2.9,1.7l-0.3-0.1
			l0.7-2.7c0.3,0.2,0.7,0.2,1,0.2h5.7c0.3,0,0.8,0,1.2-0.2l0.7,2.7l-0.3,0.1c-0.5-1.1-1.5-1.7-2.9-1.7V25.1z"/>
		<path fill="#FFFFFF" d="M20.8,25.2c0,0.9,0.2,1.1,0.8,1.2v0.3H17v-0.3c0.6,0,0.8-0.3,0.8-1.2v-5c0-0.8-0.2-1.2-0.8-1.2v-0.3h4.5
			V19c-0.6,0-0.8,0.4-0.8,1.2V25.2z"/>
		<path fill="#FFFFFF" d="M26,23.3v1.8c0,0.9,0.3,1.1,0.9,1.2v0.3h-4.6v-0.3c0.6,0,0.8-0.3,0.8-1.2v-5c0-0.8-0.2-1.1-0.8-1.2v-0.3
			h5.6c2.1,0,3.6,0.5,3.6,2.1c0,1.6-1.5,2.5-4.8,2.5H26z M26,20.3v2.2h0.7c0.8,0,1.8-0.5,1.8-1.6c0-1-0.6-1.4-1.7-1.4
			C26.3,19.5,26,19.7,26,20.3z"/>
		<path fill="#FFFFFF" d="M39.9,21.1l-0.3,0c-0.4-0.9-1.7-1.7-3-1.7c-0.7,0-1.5,0.3-1.4,1c0,0.6,1.1,0.8,1.6,0.9l1.8,0.5
			c1.3,0.4,2.4,1.2,2.4,2.2c0,2-1.8,2.8-4.8,2.8c-0.7,0-1.3,0-2-0.1c-0.3,0-0.7-0.1-1-0.1c-0.3,0-0.6,0.1-0.8,0.3L32,23.5l0.3-0.1
			c0.3,1.4,1.7,2.5,3.4,2.5c1,0,2.1-0.2,2.1-1.2c0-0.7-0.9-0.9-1.5-1l-1.5-0.4c-1.2-0.3-2.6-0.9-2.6-2.2c0-2.2,2.3-2.6,3.5-2.6
			c1.5,0,2.6,0.2,2.9,0.2c0.3,0,0.7-0.1,0.9-0.3L39.9,21.1z"/>
		<path fill="#FFFFFF" d="M50.4,25c0.2,0.5,0.5,1.3,1.2,1.4v0.3h-5v-0.3c0.5,0,0.8-0.3,0.8-0.7c0-0.3-0.2-0.8-0.2-0.8l-0.3-0.8h-3
			l-0.3,0.8c-0.2,0.4-0.3,0.7-0.3,1c0,0.4,0.3,0.5,0.7,0.5v0.3h-3.2v-0.3c0.8-0.1,1.1-0.8,1.4-1.4c0,0,2.5-5.4,2.5-5.7
			c0-0.2-0.1-0.3-0.3-0.3v-0.3h3.6L50.4,25z M46.5,23.2l-1.1-2.9l-1.2,2.9H46.5z"/>
		<path fill="#FFFFFF" d="M65.7,22.7c0,2.3-1.9,4.2-5.3,4.2c-3.4,0-5.3-1.8-5.3-4.2c0-2.3,1.9-4.2,5.3-4.2
			C63.9,18.5,65.7,20.3,65.7,22.7z M62.6,22.7c0-1.8-0.6-3.3-2.1-3.3c-1.5,0-2.1,1.5-2.1,3.3c0,1.8,0.6,3.2,2.1,3.2
			C61.9,25.9,62.6,24.5,62.6,22.7z"/>
		<path fill="#FFFFFF" d="M74.3,21.1l-0.3,0c-0.4-0.9-1.7-1.7-3-1.7c-0.7,0-1.5,0.3-1.4,1c0,0.6,1.1,0.8,1.6,0.9l1.8,0.5
			c1.3,0.4,2.4,1.2,2.4,2.2c0,2-1.8,2.8-4.8,2.8c-0.7,0-1.3,0-2-0.1c-0.3,0-0.7-0.1-1-0.1c-0.3,0-0.6,0.1-0.8,0.3l-0.3-3.4l0.3-0.1
			c0.3,1.4,1.7,2.5,3.4,2.5c1,0,2.1-0.2,2.1-1.2c0-0.7-0.9-0.9-1.5-1l-1.5-0.4c-1.2-0.3-2.6-0.9-2.6-2.2c0-2.2,2.3-2.6,3.5-2.6
			c1.5,0,2.6,0.2,2.9,0.2c0.3,0,0.7-0.1,0.9-0.3L74.3,21.1z"/>
		<path fill="#FFFFFF" d="M83.7,21.1l-0.3,0c-0.4-0.9-1.7-1.7-3-1.7c-0.7,0-1.5,0.3-1.4,1c0,0.6,1.1,0.8,1.6,0.9l1.8,0.5
			c1.3,0.4,2.4,1.2,2.4,2.2c0,2-1.8,2.8-4.8,2.8c-0.7,0-1.3,0-2-0.1c-0.3,0-0.7-0.1-1-0.1c-0.3,0-0.6,0.1-0.8,0.3l-0.3-3.4l0.3-0.1
			c0.3,1.4,1.7,2.5,3.4,2.5c1,0,2.1-0.2,2.1-1.2c0-0.7-0.9-0.9-1.5-1l-1.5-0.4C77.5,23,76,22.4,76,21.1c0-2.2,2.3-2.6,3.5-2.6
			c1.5,0,2.6,0.2,2.9,0.2c0.3,0,0.7-0.1,0.9-0.3L83.7,21.1z"/>
	</g>
	<path fill="#FCBD00" d="M56.5,9.8c0.7-4.3-2.8-8.4-7.7-9.2C43.9-0.1,39.3,2.7,38.7,7c-0.7,4.3,2.9,7.5,7.9,8
		c3.9,0.4,5.6,4.9,5.6,4.9s-1.4-4.2,1.4-6.4C55.2,12.3,56.2,11.8,56.5,9.8z"/>
	<path fill="#231F20" d="M48.3,9.9h-1.5l-0.3-3.6c-0.1-0.9-0.2-1.8-0.5-2.3h3c-0.3,0.5-0.4,1.3-0.5,2.3L48.3,9.9z M47.6,10.6
		c0.6,0,1.1,0.5,1.1,1.1c0,0.6-0.5,1.1-1.1,1.1c-0.6,0-1.1-0.5-1.1-1.1C46.5,11.1,47,10.6,47.6,10.6z"/>
</g>
</svg>
