<?xml version="1.0" encoding="iso-8859-1"?>
<!-- Generator: Adobe Illustrator 18.1.1, SVG Export Plug-In . SVG Version: 6.00 Build 0)  -->
<!DOCTYPE svg PUBLIC "-//W3C//DTD SVG 1.1//EN" "http://www.w3.org/Graphics/SVG/1.1/DTD/svg11.dtd">
<svg version="1.1" id="Lager_1" xmlns="http://www.w3.org/2000/svg" xmlns:xlink="http://www.w3.org/1999/xlink" x="0px" y="0px"
	 width="765" height="142" viewBox="0 0 765.354 141.732" style="enable-background:new 0 0 765.354 141.732;" xml:space="preserve">
<g>
	<path style="fill:#231F20;" d="M519.098,75.356c0-6.917-1.645-10.035-6.521-9.922v-2.495h45.695
		c30.16,0,40.139,17.972,40.139,31.011c0,13.834-5.953,34.301-40.253,34.301h-45.581v-2.496c4.876,0.115,6.521-2.947,6.521-9.92
		V75.356L519.098,75.356z M543.305,111.413c0,5.668-0.34,10.262,8.391,10.262c15.138,0,21.657-16.555,21.657-27.553
		c0-11.396-6.974-24.605-23.301-24.605c-6.747,0-6.747,4.762-6.747,8.9V111.413"/>
	<path style="fill:#231F20;" d="M17.757,58.348c0-9.184-2.154-13.266-8.561-13.152v-3.289H67.08
		c39.799,0,53.008,23.755,53.008,40.989c0,18.312-7.881,45.355-53.178,45.355H9.196v-3.289c6.407,0.113,8.561-3.912,8.561-13.096
		V58.348L17.757,58.348z M48.541,105.97c0,7.484-0.51,13.607,11.056,13.607c20.013,0,28.63-21.885,28.63-36.455
		c0-15.079-9.241-32.541-30.784-32.541c-8.901,0-8.901,6.293-8.901,11.792V105.97"/>
	<path style="fill:#231F20;" d="M665.988,129.837c-0.963-0.906-2.041-1.303-3.345-1.416c-1.134-0.17-2.438-0.17-3.741-0.17h-58.564
		v-2.496c4.819,0.115,6.463-2.947,6.463-9.92V75.356c0-6.917-1.644-10.035-6.463-9.922v-2.495h53.575
		c2.948,0,7.71,0.397,9.921-1.587l6.01,22.848l-2.551,0.68c-3.459-9.637-13.607-15.363-25.399-15.363
		c-11.565,0-10.886,3.686-10.886,11.621v9.072h3.799c7.767,0,15.591,0.68,15.478-8.051l2.324-0.283l5.216,25.172l-2.382,0.227
		c-1.304-2.779-3.174-5.387-5.782-7.371c-4.592-3.57-9.524-3.174-15.421-3.174h-3.231v15.646c0,6.746,2.154,9.299,11.452,9.299
		c15.137,0,24.832-7.598,31.068-18.426l2.494,0.793L665.988,129.837"/>
	<g>
		<path style="fill:#231F20;" d="M242.488,128.874c-24.662,0-46.545-9.525-46.545-33.449c0-21.43,18.595-33.959,42.236-33.959
			c8.844,0,12.358,0.511,18.368,1.474c1.813,0.284,3.571,0.624,5.329,0.624c2.607,0,4.988-1.021,6.519-2.778l3.629,23.188
			l-2.439,0.34c-4.252-8.844-14.06-16.044-25.625-16.044c-16.895,0-21.997,14.06-21.997,27.495c0,13.381,6.18,26.647,22.904,26.647
			c3.061,0,6.746-0.908,8.277-3.289c1.417-2.041,1.304-5.215,1.304-7.596v-7.881c0-4.875,0.567-10.148-7.2-10.432V90.72h36v2.494
			c-8.334,0.396-7.427,6.236-7.427,11.51v21.43C275.823,126.153,267.149,128.874,242.488,128.874"/>
		<path style="fill:#231F20;" d="M723.135,115.325c0,7.143,1.701,10.316,9.354,10.43v2.496H689.63v-2.496
			c7.653-0.113,9.298-3.287,9.298-10.43V70.196c-11.056,0.227-20.58,5.16-23.472,14.174l-2.438-0.396l5.782-22.621
			c0.681,1.077,2.495,1.474,4.252,1.587c1.871,0.113,3.912,0,5.103,0H733c2.607,0,8.787,0.511,10.545-1.587l5.442,22.621
			l-2.382,0.396c-4.024-8.787-11.849-13.549-23.471-14.174V115.325"/>
	</g>
	<path style="fill:#231F20;" d="M190.897,114.53c-8.164-20.238-20.636-51.591-20.636-51.591h-29.537v2.495
		c1.644,0.17,2.607,0.964,2.607,2.495c0,2.607-20.58,46.544-20.58,46.544c-2.211,4.535-4.705,10.092-11.111,11.281v2.496h26.021
		v-2.496c-3.23-0.283-5.441-1.303-5.441-4.365c0-2.154,0.906-4.818,2.211-8.049l2.834-6.805h24.605l2.777,6.918
		c0,0,1.814,4.592,1.814,6.576c0,3.117-2.722,5.555-6.52,5.725v2.496h40.762v-2.496C194.412,125.188,192.654,118.726,190.897,114.53
		L190.897,114.53z M140.27,99.224l9.524-23.074l9.184,23.074H140.27"/>
	<path style="fill:#231F20;" d="M342.705,91.003c6.293-1.133,15.137-6.463,15.137-14.23c0-10.544-9.978-13.833-22.28-13.833
		c-5.499,0-50.967,0-50.967,0v2.495c4.819-0.113,6.464,3.005,6.464,9.922v40.479c0,6.973-1.645,10.035-6.464,9.92v2.496h50.457
		c14.286,0,29.934-6.18,29.934-19.447C364.985,95.595,353.987,91.003,342.705,91.003L342.705,91.003z M316.457,70.991
		c1.644-1.305,4.762-1.475,7.539-1.475c5.67,0,12.756,1.814,12.756,9.693c0,9.355-9.58,9.752-13.832,9.752h-7.654V75.583
		C315.266,74.278,315.039,71.954,316.457,70.991L316.457,70.991z M322.353,121.675c-6.86,0-7.087-1.475-7.087-6.521V95.481h7.654
		c6.859,0,17.461,0.908,17.461,11.963C340.381,118.669,330.629,121.675,322.353,121.675"/>
	<path style="fill:#231F20;" d="M423.931,129.837h0.34c2.722-5.045,8.164-16.439,12.982-27.041l0.228-0.625l-2.835-0.736
		c-5.499,10.092-19.105,20.24-29.367,20.24c-4.818,0-6.803-2.836-6.803-6.01V75.356c0-6.917,1.53-10.035,6.406-9.922v-2.495h-37.077
		v2.495c4.818-0.113,6.463,3.005,6.463,9.922v40.479c0,6.973-1.645,10.035-6.463,9.92v2.496h49.549c1.191,0,1.588,0,3.005,0.113
		C421.946,128.421,423.363,128.817,423.931,129.837"/>
	<path style="fill:#231F20;" d="M506.058,114.53c-8.163-20.238-20.636-51.591-20.636-51.591h-29.594v2.495
		c1.644,0.17,2.607,0.964,2.607,2.495c0,2.607-20.409,49.946-26.362,60.321h20.693v-2.496c-3.175-0.283-5.442-1.303-5.442-4.365
		c0-2.154,0.964-4.818,2.268-8.049l2.778-6.805h24.661l2.721,6.918c0,0,1.814,4.592,1.814,6.576c0,3.117-2.721,5.555-6.463,5.725
		v2.496h40.706v-2.496C509.573,125.188,507.815,118.726,506.058,114.53L506.058,114.53z M455.432,99.224l9.525-23.074l9.127,23.074
		H455.432"/>
	<path style="fill:#231F20;" d="M200.365,50.354c-6.746-7.766-12.756-14.854-14.967-17.574l5.726-4.365
		c3.288-2.324,6.917-4.365,11.282-4.932v-1.248h-17.404v1.248c1.189,0.057,2.834,0.623,2.834,1.87c0,1.247-3.005,3.515-4.025,4.365
		l-7.37,5.499v-6.463c0-3.628,0.851-5.215,3.288-5.271l-0.057-1.248H160.85v1.248c2.439-0.057,3.289,1.473,3.289,5.045v20.523
		c0,3.571-0.851,5.102-3.289,5.045v1.248h19.219v-1.248c-2.438,0.057-3.628-1.474-3.628-5.045v-9.356l0.171-0.113
		c4.988,5.33,10.828,11.85,10.828,12.812c0,1.361-1.078,1.644-2.438,1.701v1.248h21.089v-1.248
		C203.993,54.096,201.895,52.168,200.365,50.354"/>
	<path style="fill:#231F20;" d="M279.395,55.344h-4.535l-23.811-23.528v17.235c0,3.571,0.793,5.102,3.23,5.045v1.248h-11.621v-1.248
		c2.494,0.057,3.288-1.474,3.288-5.045V28.527c0-3.572-0.794-5.102-3.288-5.045v-1.248h15.76l15.875,15.648v-9.355
		c0-3.572-1.248-5.102-3.686-5.045v-1.248h12.076v1.248c-2.495-0.057-3.289,1.473-3.289,5.045V55.344"/>
	<path style="fill:#231F20;" d="M403.949,48.37c-4.139-10.262-10.488-26.192-10.488-26.192h-14.967v1.248
		c0.794,0.113,1.304,0.51,1.304,1.246c0,1.361-10.432,23.641-10.432,23.641c-1.134,2.325-2.438,5.16-5.669,5.727v1.305h13.21v-1.305
		c-1.588-0.113-2.778-0.623-2.778-2.211c0-1.077,0.51-2.438,1.19-4.082l1.417-3.458h12.473l1.417,3.515c0,0,0.907,2.324,0.907,3.346
		c0,1.587-1.36,2.834-3.288,2.891v1.305h20.693v-1.305C405.764,53.756,404.856,50.468,403.949,48.37L403.949,48.37z M378.268,40.547
		l4.818-11.68l4.649,11.68H378.268"/>
	<path style="fill:#231F20;" d="M365.965,50.354c-6.746-7.766-12.699-14.854-14.91-17.574l5.669-4.365
		c3.346-2.324,6.974-4.365,11.282-4.932v-1.248h-17.404v1.248c1.247,0.057,2.834,0.623,2.834,1.87c0,1.247-3.004,3.515-4.024,4.365
		l-7.37,5.499v-6.463c0-3.628,0.85-5.215,3.345-5.271l-0.113-1.248H326.45v1.248c2.494-0.057,3.345,1.473,3.345,5.045v20.523
		c0,3.571-0.851,5.102-3.345,5.045v1.248h19.275v-1.248c-2.438,0.057-3.685-1.474-3.685-5.045v-9.356l0.17-0.113
		c4.988,5.33,10.885,11.85,10.885,12.812c0,1.361-1.134,1.644-2.438,1.701v1.248h21.09v-1.248
		C369.65,54.096,367.553,52.168,365.965,50.354"/>
	<path style="fill:#231F20;" d="M238.633,48.37c-4.139-10.262-10.488-26.192-10.488-26.192h-14.967v1.248
		c0.793,0.113,1.304,0.51,1.304,1.246c0,1.361-10.431,23.641-10.431,23.641c-1.135,2.325-2.382,5.16-5.67,5.727v1.305h13.209v-1.305
		c-1.587-0.113-2.777-0.623-2.777-2.211c0-1.077,0.51-2.438,1.19-4.082l1.417-3.458h12.473l1.418,3.515c0,0,0.906,2.324,0.906,3.346
		c0,1.587-1.36,2.834-3.288,2.891v1.305h20.692v-1.305C240.447,53.756,239.54,50.468,238.633,48.37L238.633,48.37z M212.951,40.547
		l4.818-11.68l4.648,11.68H212.951"/>
	<path style="fill:#231F20;" d="M213.744,12.199c0,3.969,3.232,7.201,7.2,7.201c3.969,0,7.144-3.232,7.144-7.201
		c0-3.968-3.175-7.199-7.144-7.199C216.977,5,213.744,8.231,213.744,12.199L213.744,12.199z M217.656,12.199
		c0-1.813,1.475-3.287,3.288-3.287c1.758,0,3.232,1.474,3.232,3.287c0,1.814-1.474,3.289-3.232,3.289
		C219.131,15.488,217.656,14.014,217.656,12.199"/>
	<path style="fill:#231F20;" d="M152.402,21.271l1.531,10.829l-1.134,0.17c-1.928-3.912-7.087-6.86-11.339-6.86
		c-4.252,0-7.199,1.871-7.199,3.854c0,1.928,1.813,2.779,9.014,4.649c7.199,1.871,14.74,3.912,14.74,11.112
		c0,7.199-6.974,11.168-18.652,11.168c-11.679,0-12.586-2.777-16.668-0.057l-1.247-14.003l1.247-0.113
		c0.965,4.081,5.217,10.091,13.55,10.091c7.37,0,9.241-2.381,9.241-4.648c0-2.551-2.721-3.516-9.809-5.442
		c-7.143-1.984-13.266-4.195-13.266-10.318c0-6.122,6.066-10.261,14.91-10.261C146.109,21.441,149.965,23.936,152.402,21.271"/>
	<g>
		<path style="fill:#231F20;" d="M317.719,21.271l1.588,10.829l-1.19,0.17c-1.928-3.912-7.087-6.86-11.339-6.86
			c-4.252,0-7.199,1.871-7.199,3.854c0,1.928,1.814,2.779,9.014,4.649c7.2,1.871,14.797,3.912,14.797,11.112
			c0,7.199-7.029,11.168-18.709,11.168c-11.678,0-12.586-2.777-16.668-0.057l-1.246-14.003l1.246-0.113
			c0.965,4.081,5.217,10.091,13.551,10.091c7.369,0,9.24-2.381,9.24-4.648c0-2.551-2.721-3.516-9.808-5.442
			c-7.087-1.984-13.21-4.195-13.21-10.318c0-6.122,6.01-10.261,14.854-10.261C311.426,21.441,315.281,23.936,317.719,21.271"/>
	</g>
	<g>
		<path style="fill:#FCBD00;" d="M429.414,28.234c-0.043,0.6-0.176,2.369-0.259,3.438c-1.003,0.669-2.023,0.968-2.916,0.487
			l1.553-3.926c-1.722,0.615-3.398,0.787-4.272-0.311l2.842-2.861c-1.808-0.139-3.384-0.666-3.731-2.012l3.82-1.479
			c-1.878-0.795-3.481-1.921-3.311-3.452l3.692-0.028c-1.176-1.51-1.916-3.134-1.099-4.335l3.046,1.585
			c-0.534,0.908-0.952,1.891-1.243,2.903c-0.295,1.013-0.463,2.057-0.486,3.091l0,0c0,0.077-0.008,0.149-0.008,0.224
			c0,0.087,0.008,0.165,0.01,0.247l0,0c0.018,0.777,0.119,1.534,0.298,2.268c0.32,1.302,0.896,2.526,1.689,3.639
			C429.163,27.891,429.281,28.063,429.414,28.234z M434.77,7.064c-1.994,1.342-2.756,3.405-3.029,4.972
			c0.958-0.676,1.991-1.087,3.029-1.233V7.064z M446.508,15.98c0.425,0.211,0.77,0.517,1.028,0.877l2.43-1.868
			c-1.885-0.692-3.649-0.393-5.031,0.143C445.659,15.534,446.223,15.837,446.508,15.98z M436.289,7.064v3.716
			c0.738,0.093,1.473,0.318,2.173,0.708c0.273,0.156,0.556,0.315,0.845,0.477C439.018,10.406,438.253,8.389,436.289,7.064z
			 M447.731,30.053c0.317,0.043,0.852,0.115,1.486,0.205l4.074-4.871l1.932,2.615l2.498,0.262l-1.269-5.488l8.016-0.699l-1.81-2.588
			l-4.23-0.25l3.523-4.219l-2.926-0.399l-2.803,2.149l0.071-4.992l-2.738,2.088l-0.695,5.48l-7.878,6.039
			C446.278,26.573,447.229,28.158,447.731,30.053z M459.573,51.581l-3.493-0.517l3.632-3.427l-3.406-0.509l-4.417,3.318
			l-0.507-0.076l2.49-5.771l-0.181-0.222l-3.022,0.798l-2.68,4.695l-6.238-0.921c-0.314-1.671-1.112-3.437-3.928-5.15
			c-1.677,0.694-4.577,1.898-5.428,2.249c-0.097,0.493-0.371,1.891-0.686,3.501l7.747,6.079l7.195-0.548l4.847,4.425l2.504-0.224
			l-2.064-4.608l9.389-0.714L459.573,51.581z M416.431,30.207l-0.624-0.578c-0.853,0.01-1.709,0.252-2.47,0.759l2.367,3.571
			c-1.144-0.373-2.446-0.242-3.529,0.477l2.026,3.059c-0.99-0.277-2.085-0.152-3.012,0.468l2.149,3.236l1.438-2.841l0,0l1.665-3.293
			l0,0l0.632-1.256C417.685,32.609,417.423,31.125,416.431,30.207z M417.205,21.413l0.838-3.569c-1.415-0.336-2.826,0.109-3.8,1.053
			c0.084,0.693,0.389,1.362,0.936,1.871l1.355,1.256l0,0l2.761,2.562l0.894-3.78C419.109,20.549,418.033,20.81,417.205,21.413z
			 M441.574,15.684l4.193,2.002c0,0-0.712,2.537-2.496,2.537c-3.569,0-3.317-1.756-4.09-1.112c-0.115,0.103-0.175,0.276-0.175,0.518
			c0,0.253,0.219,0.979,0.219,0.979l3.818,2.613l-0.087,0.703l-4.492-0.945c0,0,0.41,1.35,0.5,1.559
			c4.565,0.125,6.983,3.387,7.533,6.877l10.63,1.461l4.387-3.363l3.408,0.481l-3.596,3.459l3.499,0.482l1.77,2.359l-5.474,0.46
			l2.797,3.184l-0.567,3.106l-6.131-5.201l-3.009,4.757l-1.571-1.96l0.497-3.213l-7.906,0.668c-1.309,2.154-3.53,3.702-6.622,3.733
			c-0.085,0.036-7.191,2.983-7.547,3.133c-0.076,0.378-2.266,11.519-2.266,11.519l4.129,4.463l5.037-1.979l3.146,1.404l-5.856,3.089
			l0.352,0.382l5.525,0.18l2.333,2.535l-4.98,0.389l2.399,2.596l-0.126,2.947l-7.76-5.338l-1.284,4.896l-2.091-1.395l-1.006-6.521
			l-4.286-2.943l-3.856-13.07l-1.948,3.848c-0.99,1.961-3.392,2.748-5.353,1.756c-0.945-0.478-1.653-1.299-1.984-2.313
			c-0.333-1.011-0.249-2.095,0.228-3.039l7.016-13.868c0.916-1.803,0.517-4.023-0.967-5.398l-5.377-4.988
			c-3.071-2.85-3.257-7.659-0.411-10.729c2.846-3.074,7.656-3.255,10.726-0.414l-2.065,2.231c-1.841-1.71-4.727-1.597-6.435,0.245
			c-1.704,1.844-1.597,4.729,0.248,6.439l5.373,4.988c2.478,2.286,3.138,5.986,1.617,8.998l-7.015,13.867
			c-0.235,0.455-0.043,1.043,0.416,1.27c0.461,0.231,1.04,0.044,1.275-0.417l5.739-11.346h0.318c3.86,0,8.5-3.94,8.732-6.611
			c0,0,0.346-4.593,0.364-4.848c-1.685-1.858-2.412-4.061-2.412-6.226c0-2.405,0.878-4.763,2.267-6.556
			c1.978-2.553,4.3-3.42,6.858-2.211c0.03,0.012,3.004,1.43,3.004,1.43L441.574,15.684z M438.029,16.399
			c0.76,0.366,1.666,0.043,2.026-0.716l-2.74-1.307C436.955,15.135,437.27,16.039,438.029,16.399z M434.77,10.778V7.064
			c-2.094,1.326-2.884,3.435-3.176,5.037C432.602,11.351,433.668,10.914,434.77,10.778z M447.544,16.85l2.422-1.86
			c-2.131-0.784-4.121-0.297-5.557,0.366C445.741,15.992,447.326,16.748,447.544,16.85z M438.336,11.424l1.094,0.517
			c-0.315-1.58-1.114-3.593-3.141-4.877v3.739C436.967,10.895,437.651,11.097,438.336,11.424z"/>
	</g>
</g>
</svg>
